<svg xmlns="http://www.w3.org/2000/svg" width="980" height="560" viewBox="0 0 980 560">
  <style>
    .bg { fill: #101114; }
    .title { fill: #f5f7fb; font: 700 28px Arial, sans-serif; }
    .tick,.legend { fill: #d7dce6; font: 14px Arial, sans-serif; }
    .axis { stroke: #333842; stroke-width: 1; }
    .s0 { fill: #ef2d7a; }
    .s1 { fill: #45d4c9; }
    .s2 { fill: #f5b84b; }
  </style>
  <rect width="100%" height="100%" class="bg"/>
  <text x="24" y="46" class="title">Atraso na entrega eleva risco de detrator</text>
  <line x1="90" y1="476" x2="920" y2="476" class="axis"/>
  <rect x="127.3" y="448.5" width="34.0" height="27.5" class="s0" rx="3"/><rect x="167.3" y="329.8" width="34.0" height="146.2" class="s1" rx="3"/><text x="193.8" y="510" class="tick" text-anchor="middle">0 dias</text><rect x="334.9" y="453.8" width="34.0" height="22.2" class="s0" rx="3"/><rect x="374.9" y="236.7" width="34.0" height="239.3" class="s1" rx="3"/><text x="401.2" y="510" class="tick" text-anchor="middle">1 dia</text><rect x="542.4" y="459.7" width="34.0" height="16.3" class="s0" rx="3"/><rect x="582.4" y="147.9" width="34.0" height="328.1" class="s1" rx="3"/><text x="608.8" y="510" class="tick" text-anchor="middle">2-3 dias</text><rect x="749.9" y="468.0" width="34.0" height="8.0" class="s0" rx="3"/><rect x="789.9" y="86.0" width="34.0" height="390.0" class="s1" rx="3"/><text x="816.2" y="510" class="tick" text-anchor="middle">4+ dias</text>
  <rect x="90" y="518" width="18" height="18" class="s0"/><text x="116" y="533" class="legend">NPS médio</text><rect x="260" y="518" width="18" height="18" class="s1"/><text x="286" y="533" class="legend">% detratores</text>
</svg>
